<svg width="129" height="48" viewBox="0 0 129 48" fill="none" xmlns="http://www.w3.org/2000/svg">
<path d="M21.504 47.104C17.536 47.104 13.9093 46.1227 10.624 44.16C7.33866 42.1973 4.73599 39.4453 2.81599 35.904C0.938656 32.3627 -1.07288e-05 28.3733 -1.07288e-05 23.936C-1.07288e-05 19.4987 0.938656 15.5093 2.81599 11.968C4.73599 8.42666 7.33866 5.67466 10.624 3.712C13.9093 1.74933 17.536 0.767998 21.504 0.767998C23.5093 0.767998 25.4507 1.088 27.328 1.728C29.248 2.368 30.8907 3.28533 32.256 4.48V-3.8147e-06H41.152V19.776H31.936V18.368C31.7653 16.7893 31.2107 15.36 30.272 14.08C29.376 12.8 28.1813 11.7973 26.688 11.072C25.2373 10.304 23.616 9.92 21.824 9.92C19.52 9.92 17.472 10.5173 15.68 11.712C13.888 12.9067 12.48 14.5707 11.456 16.704C10.432 18.8373 9.91999 21.248 9.91999 23.936C9.91999 26.624 10.432 29.0347 11.456 31.168C12.48 33.3013 13.888 34.9653 15.68 36.16C17.5147 37.3547 19.5627 37.952 21.824 37.952C23.6587 37.952 25.344 37.5893 26.88 36.864C28.416 36.096 29.6533 35.072 30.592 33.792C31.5733 32.512 32.128 31.0827 32.256 29.504V27.904H41.536V47.104H32.64V43.392C31.2747 44.5867 29.5893 45.504 27.584 46.144C25.6213 46.784 23.5947 47.104 21.504 47.104Z" fill="#E14A2B"/>
<path d="M46.1295 37.44H52.0175V10.432H46.1295V1.536H70.1295C75.3348 1.536 79.4308 2.79466 82.4175 5.312C85.4042 7.78666 86.8975 11.2 86.8975 15.552C86.8975 19.9467 85.4042 23.4027 82.4175 25.92C79.4308 28.3947 75.3348 29.632 70.1295 29.632H61.3615V37.44H70.1935V46.336H46.1295V37.44ZM69.6815 22.144C71.9002 22.144 73.6708 21.5893 74.9935 20.48C76.3162 19.3707 76.9775 17.8987 76.9775 16.064C76.9775 14.1867 76.3162 12.7147 74.9935 11.648C73.6708 10.5387 71.9002 9.984 69.6815 9.984H61.3615V22.144H69.6815Z" fill="#F7941F"/>
<path d="M89.442 29.248H98.53V30.016C98.7433 31.6373 99.4473 33.1307 100.642 34.496C101.879 35.8613 103.458 36.9707 105.378 37.824C107.298 38.6347 109.325 39.04 111.458 39.04C112.866 39.04 114.103 38.8693 115.17 38.528C116.279 38.1867 117.154 37.6747 117.794 36.992C118.434 36.2667 118.754 35.4347 118.754 34.496C118.754 33.4293 118.327 32.5547 117.474 31.872C116.621 31.1467 115.49 30.5493 114.082 30.08C112.674 29.568 110.626 28.9493 107.938 28.224C107.682 28.1387 107.405 28.0533 107.106 27.968C106.807 27.8827 106.53 27.8187 106.274 27.776C106.231 27.776 106.189 27.776 106.146 27.776C106.146 27.7333 106.125 27.712 106.082 27.712C103.181 26.9013 100.621 26.0053 98.402 25.024C96.1833 24.0427 94.242 22.592 92.578 20.672C90.9567 18.7093 90.146 16.192 90.146 13.12C90.146 10.432 90.8287 8.14933 92.194 6.272C93.5593 4.352 95.4153 2.92266 97.762 1.984C100.109 1.04533 102.69 0.575996 105.506 0.575996C107.17 0.575996 108.749 0.746663 110.242 1.088C111.735 1.38666 113.143 1.83466 114.466 2.432C115.191 2.816 115.895 3.24266 116.578 3.712C117.303 4.13866 117.965 4.65066 118.562 5.248V0.703995H127.394V17.792H118.69V17.152C118.477 15.872 117.773 14.592 116.578 13.312C115.426 11.9893 113.933 10.9227 112.098 10.112C110.306 9.25866 108.365 8.832 106.274 8.832C104.354 8.832 102.797 9.23733 101.602 10.048C100.45 10.8587 99.874 12.032 99.874 13.568C99.874 14.6773 100.301 15.616 101.154 16.384C102.007 17.1093 103.074 17.7067 104.354 18.176C105.677 18.6453 107.597 19.2 110.114 19.84C110.37 19.9253 110.605 19.9893 110.818 20.032C111.074 20.0747 111.33 20.1387 111.586 20.224L112.482 20.48C115.895 21.4187 118.669 22.336 120.802 23.232C122.935 24.128 124.77 25.472 126.306 27.264C127.842 29.056 128.61 31.4027 128.61 34.304C128.61 37.12 127.885 39.5093 126.434 41.472C124.983 43.392 123.021 44.8427 120.546 45.824C118.114 46.8053 115.405 47.296 112.418 47.296C110.583 47.296 108.834 47.104 107.17 46.72C105.506 46.336 103.97 45.8027 102.562 45.12C101.751 44.6933 100.983 44.224 100.258 43.712C99.5327 43.1573 98.8713 42.56 98.274 41.92V46.72H89.442V29.248Z" fill="#1C1463"/>
</svg>
